<svg id="Layer_1" data-name="Layer 1" xmlns="http://www.w3.org/2000/svg" xmlns:xlink="http://www.w3.org/1999/xlink" viewBox="0 0 242.67 241.92"><defs><style>.cls-1{fill:none;}.cls-2{clip-path:url(#clip-path);}.cls-3{fill:#f99d22;}</style><clipPath id="clip-path"><rect class="cls-1" x="1.33" width="239.76" height="241.92"/></clipPath></defs><title>logoArtboard 1</title><g class="cls-2"><path class="cls-3" d="M121.33,1a120,120,0,1,0,120,120,120,120,0,0,0-120-120Zm-11.6,142.22-13.45-7.38h-8l-8.08,28.42H59.08l8.09-28.42h-.78a23.3,23.3,0,1,1,0-46.6h29.9l13.45-7.38Zm26.13,14.34L122.18,150V75.84H120.6l15.26-8.38A10.13,10.13,0,0,1,146,77.59v69.79a10.13,10.13,0,0,1-10.13,10.13Zm27.4-22.84a31.32,31.32,0,0,0,0-36.8l7.25-7.25a41.55,41.55,0,0,1,0,51.29Zm20.14,20.14-7.18-7.18a49.59,49.59,0,0,0,0-62.71l7.18-7.18a59.64,59.64,0,0,1,0,77.08Zm0,0"/></g></svg>