<svg id="Layer_1" data-name="Layer 1" xmlns="http://www.w3.org/2000/svg" viewBox="0 0 244.5 245.5"><defs><style>.cls-1{fill:#f99d22;}</style></defs><title>logoArtboard 1</title><path class="cls-1" d="M179.9,74.53H65.09A2.07,2.07,0,0,0,63,76.6v76.77a2.07,2.07,0,0,0,2.07,2.08H179.9a2.08,2.08,0,0,0,2.08-2.08V76.6a2.08,2.08,0,0,0-2.08-2.07Zm0,0"/><path class="cls-1" d="M122.5,3a120,120,0,1,0,120,120A120,120,0,0,0,122.5,3Zm74,150.37A16.6,16.6,0,0,1,179.9,170H142.19v9.27h19a6.22,6.22,0,0,1,0,12.45H83.77a6.22,6.22,0,1,1,0-12.45h19V170H65.09a16.6,16.6,0,0,1-16.6-16.6V76.6A16.6,16.6,0,0,1,65.09,60H179.9a16.6,16.6,0,0,1,16.6,16.6Zm0,0"/></svg>