<svg id="Layer_1" data-name="Layer 1" xmlns="http://www.w3.org/2000/svg" viewBox="0 0 417.33 417"><defs><style>.cls-1{fill:#f99d22;}</style></defs><title>logoArtboard 1</title><path class="cls-1" d="M132.56,216.57a11.41,11.41,0,0,0-.39,2.83v85.7a11.61,11.61,0,0,0,11.6,11.61H276a11.62,11.62,0,0,0,11.6-11.61V219.4a11.66,11.66,0,0,0-.39-2.83Zm0,0"/><path class="cls-1" d="M209.8,3C96.7,3,5,94.69,5,207.8S96.7,412.6,209.8,412.6s204.8-91.7,204.8-204.8S322.91,3,209.8,3Zm37.82,65.25h19.66c-23.6,28.67,23.6,57.34,0,86H247.62c23.6-28.68-23.6-57.35,0-86Zm-47.55,0h19.66c-23.6,28.67,23.59,57.34,0,86H200.07c23.6-28.68-23.6-57.35,0-86Zm-47.55,0h19.66c-23.6,28.67,23.6,57.34,0,86H152.52c23.6-28.68-23.6-57.35,0-86Zm182.22,197L308.88,272V305.1A32.89,32.89,0,0,1,276,337.95H143.77a32.89,32.89,0,0,1-32.85-32.85V271.53l-24.18-6.24a14.16,14.16,0,1,1,7.08-27.43l17.1,4.41V219.4a32.39,32.39,0,0,1,.41-4.92,17.58,17.58,0,0,1,8.17-33.17H300.3a17.58,17.58,0,0,1,8.17,33.17,32.91,32.91,0,0,1,.41,4.92v23.31l18.79-4.85a14.17,14.17,0,1,1,7.07,27.43Zm0,0"/></svg>