<svg id="Layer_1" data-name="Layer 1" xmlns="http://www.w3.org/2000/svg" xmlns:xlink="http://www.w3.org/1999/xlink" viewBox="0 0 244 243.67"><defs><style>.cls-1{fill:none;}.cls-2{clip-path:url(#clip-path);}.cls-3{fill:#f99d22;}</style><clipPath id="clip-path"><rect class="cls-1" x="2" y="1.67" width="239.76" height="240.72"/></clipPath></defs><title>logoArtboard 2</title><g class="cls-2"><path class="cls-3" d="M134.36,88l-7.83,7.83a6.23,6.23,0,0,1-5.73,1.68,6,6,0,0,1-3.34-1.68L109.64,88a26.89,26.89,0,0,0-38,0c-10.26,10.26-10.16,26.7.23,38.24,10.59,11.77,39.68,36,50.13,44.63,10.45-8.61,39.55-32.87,50.14-44.63,10.38-11.54,10.48-28,.22-38.24a26.91,26.91,0,0,0-38,0Zm0,0"/><path class="cls-3" d="M122,1.43a120,120,0,1,0,120,120,120,120,0,0,0-120-120Zm59.4,133.13c-13.58,15.09-53.64,47.69-55.34,49.07A6,6,0,0,1,122,185h-.14a6.2,6.2,0,0,1-3.92-1.39c-1.7-1.38-41.75-34-55.33-49.07C47.72,118,47.82,94.21,62.84,79.19a39.36,39.36,0,0,1,55.6,0L122,82.75l3.56-3.56a39.37,39.37,0,0,1,55.61,0c15,15,15.11,38.83.23,55.38Zm0,0"/></g></svg>